# xmcd
#
# Track frame offsets: 
#        150
#        16766
#        38442
#        69080
#        88204
#        108108
#        130078
#        154144
#        174933
#        196357
#        211335
#        264620
#        272636
#        289686
#
# Disc length: 4142 seconds
#
# Revision: 0
# Processed by: cddbd v1.5.2PL0 Copyright (c) Steve Scherf et al.
# Submitted via: ExactAudioCopy v0.99pb4
#
DISCID=b4102c0e
DTITLE=Various Artist - Montreux Blues
DYEAR=1973
DGENRE=Blues
TTITLE0=Memphis Slim_1973_Wish Me Well
TTITLE1=Memphis Slim_1973_Angel Child
TTITLE2=Memphis Slim_Freddy King_2006_Lend Me Your Love
TTITLE3=Mc Houston "Mickey" Baker_1973_Diggin' My Potatoes
TTITLE4=Mc Houston "Mickey" Baker_1973_Make Your Bed Up Mama
TTITLE5=Willie Mabon_1973_Harmonica Swing
TTITLE6=Willie Mabon_1973_Sad Feeling
TTITLE7=Willie Mabon_1973_Mabon Soul
TTITLE8=Willie Mabon_2006_Have A Little Mercy On Me
TTITLE9=Clarence "Gatemouth" Brown_1973_Louisiana Breakdown
TTITLE10=Clarence "Gatemouth" Brown_2006_The Drifter Rides Again
TTITLE11=Clarence "Gatemouth" Brown_1973_Highball For Gate
TTITLE12=Clarence "Gatemouth" Brown_1973_Cajun Blues
TTITLE13=Clarence "Gatemouth" Brown_1973_Got My Mojo Working
EXTD=
EXTT0=
EXTT1=
EXTT2=
EXTT3=
EXTT4=
EXTT5=
EXTT6=
EXTT7=
EXTT8=
EXTT9=
EXTT10=
EXTT11=
EXTT12=
EXTT13=
PLAYORDER=
